solid OpenSCAD_Model
  facet normal 1 0 0
    outer loop
      vertex 102.1 1.2 15
      vertex 102.1 0 15
      vertex 102.1 1.2 5
    endloop
  endfacet
  facet normal 1 0 0
    outer loop
      vertex 102.1 20 5
      vertex 102.1 32.1 36.6
      vertex 102.1 20 36.6
    endloop
  endfacet
  facet normal 1 0 0
    outer loop
      vertex 102.1 32.1 36.6
      vertex 102.1 20 5
      vertex 102.1 32.1 0
    endloop
  endfacet
  facet normal 1 0 0
    outer loop
      vertex 102.1 0 0
      vertex 102.1 20 5
      vertex 102.1 1.2 5
    endloop
  endfacet
  facet normal 1 0 0
    outer loop
      vertex 102.1 20 5
      vertex 102.1 0 0
      vertex 102.1 32.1 0
    endloop
  endfacet
  facet normal 1 0 0
    outer loop
      vertex 102.1 0 0
      vertex 102.1 1.2 5
      vertex 102.1 0 15
    endloop
  endfacet
  facet normal 0 0 1
    outer loop
      vertex 3.8 32.1 36.6
      vertex 0.799999 31.3 36.6
      vertex 3.8 31.3 36.6
    endloop
  endfacet
  facet normal 0 0 1
    outer loop
      vertex 0.799999 31.3 36.6
      vertex 0 32.1 36.6
      vertex 0.799999 20.8 36.6
    endloop
  endfacet
  facet normal -0 0 1
    outer loop
      vertex 0 32.1 36.6
      vertex 0.799999 31.3 36.6
      vertex 3.8 32.1 36.6
    endloop
  endfacet
  facet normal -0 0 1
    outer loop
      vertex 0.799999 20.8 36.6
      vertex 3.8 20 36.6
      vertex 3.8 20.8 36.6
    endloop
  endfacet
  facet normal 0 0 1
    outer loop
      vertex 0.799999 20.8 36.6
      vertex 0 20 36.6
      vertex 3.8 20 36.6
    endloop
  endfacet
  facet normal 0 0 1
    outer loop
      vertex 0 20 36.6
      vertex 0.799999 20.8 36.6
      vertex 0 32.1 36.6
    endloop
  endfacet
  facet normal 0 0 1
    outer loop
      vertex 102.1 32.1 36.6
      vertex 101.3 31.3 36.6
      vertex 102.1 20 36.6
    endloop
  endfacet
  facet normal -0 0 1
    outer loop
      vertex 98.3 32.1 36.6
      vertex 101.3 31.3 36.6
      vertex 102.1 32.1 36.6
    endloop
  endfacet
  facet normal 0 0 1
    outer loop
      vertex 101.3 31.3 36.6
      vertex 98.3 32.1 36.6
      vertex 98.3 31.3 36.6
    endloop
  endfacet
  facet normal -0 0 1
    outer loop
      vertex 101.3 20.8 36.6
      vertex 102.1 20 36.6
      vertex 101.3 31.3 36.6
    endloop
  endfacet
  facet normal 0 0 1
    outer loop
      vertex 98.3 20 36.6
      vertex 101.3 20.8 36.6
      vertex 98.3 20.8 36.6
    endloop
  endfacet
  facet normal 0 0 1
    outer loop
      vertex 101.3 20.8 36.6
      vertex 98.3 20 36.6
      vertex 102.1 20 36.6
    endloop
  endfacet
  facet normal 0 0 -1
    outer loop
      vertex 15 0 0
      vertex 5 1.2 0
      vertex 15 1.2 0
    endloop
  endfacet
  facet normal -0 0 -1
    outer loop
      vertex 5 1.2 0
      vertex 0 0 0
      vertex 5 20 0
    endloop
  endfacet
  facet normal 0 0 -1
    outer loop
      vertex 0 0 0
      vertex 5 1.2 0
      vertex 15 0 0
    endloop
  endfacet
  facet normal 0 0 -1
    outer loop
      vertex 97.1 20 0
      vertex 102.1 0 0
      vertex 97.1 1.2 0
    endloop
  endfacet
  facet normal 0 0 -1
    outer loop
      vertex 87.1 0 0
      vertex 97.1 1.2 0
      vertex 102.1 0 0
    endloop
  endfacet
  facet normal -0 0 -1
    outer loop
      vertex 97.1 1.2 0
      vertex 87.1 0 0
      vertex 87.1 1.2 0
    endloop
  endfacet
  facet normal 0 0 -1
    outer loop
      vertex 102.1 0 0
      vertex 97.1 20 0
      vertex 102.1 32.1 0
    endloop
  endfacet
  facet normal 0 0 -1
    outer loop
      vertex 5 20 0
      vertex 102.1 32.1 0
      vertex 97.1 20 0
    endloop
  endfacet
  facet normal 0 0 -1
    outer loop
      vertex 5 20 0
      vertex 0 32.1 0
      vertex 102.1 32.1 0
    endloop
  endfacet
  facet normal 0 0 -1
    outer loop
      vertex 0 32.1 0
      vertex 5 20 0
      vertex 0 0 0
    endloop
  endfacet
  facet normal -1 0 0
    outer loop
      vertex 0 32.1 0
      vertex 0 20 5
      vertex 0 32.1 36.6
    endloop
  endfacet
  facet normal -1 0 0
    outer loop
      vertex 0 0 0
      vertex 0 20 5
      vertex 0 32.1 0
    endloop
  endfacet
  facet normal -1 -0 0
    outer loop
      vertex 0 20 5
      vertex 0 0 0
      vertex 0 1.2 5
    endloop
  endfacet
  facet normal -1 0 0
    outer loop
      vertex 0 0 15
      vertex 0 1.2 5
      vertex 0 0 0
    endloop
  endfacet
  facet normal -1 0 0
    outer loop
      vertex 0 1.2 5
      vertex 0 0 15
      vertex 0 1.2 15
    endloop
  endfacet
  facet normal -1 -0 0
    outer loop
      vertex 0 32.1 36.6
      vertex 0 20 5
      vertex 0 20 36.6
    endloop
  endfacet
  facet normal 0 1 0
    outer loop
      vertex 102.1 32.1 36.6
      vertex 98.3 32.1 2
      vertex 98.3 32.1 36.6
    endloop
  endfacet
  facet normal 0 1 0
    outer loop
      vertex 98.3 32.1 2
      vertex 102.1 32.1 0
      vertex 3.8 32.1 2
    endloop
  endfacet
  facet normal 0 1 -0
    outer loop
      vertex 102.1 32.1 0
      vertex 98.3 32.1 2
      vertex 102.1 32.1 36.6
    endloop
  endfacet
  facet normal 0 1 -0
    outer loop
      vertex 3.8 32.1 2
      vertex 0 32.1 36.6
      vertex 3.8 32.1 36.6
    endloop
  endfacet
  facet normal 0 1 0
    outer loop
      vertex 3.8 32.1 2
      vertex 0 32.1 0
      vertex 0 32.1 36.6
    endloop
  endfacet
  facet normal 0 1 0
    outer loop
      vertex 0 32.1 0
      vertex 3.8 32.1 2
      vertex 102.1 32.1 0
    endloop
  endfacet
  facet normal 0 1 -0
    outer loop
      vertex 98.3 20 2
      vertex 97.1 20 5
      vertex 98.3 20 5
    endloop
  endfacet
  facet normal 0 1 0
    outer loop
      vertex 97.1 20 5
      vertex 98.3 20 2
      vertex 97.1 20 2
    endloop
  endfacet
  facet normal 0 -1 0
    outer loop
      vertex 98.3 20 5
      vertex 102.1 20 36.6
      vertex 98.3 20 36.6
    endloop
  endfacet
  facet normal 0 -1 -0
    outer loop
      vertex 102.1 20 36.6
      vertex 98.3 20 5
      vertex 102.1 20 5
    endloop
  endfacet
  facet normal 0 -1 0
    outer loop
      vertex 5 20 0
      vertex 97.1 20 2
      vertex 5 20 2
    endloop
  endfacet
  facet normal 0 -1 -0
    outer loop
      vertex 97.1 20 2
      vertex 5 20 0
      vertex 97.1 20 0
    endloop
  endfacet
  facet normal 0 -1 0
    outer loop
      vertex 0 20 5
      vertex 3.8 20 36.6
      vertex 0 20 36.6
    endloop
  endfacet
  facet normal 0 -1 -0
    outer loop
      vertex 3.8 20 36.6
      vertex 0 20 5
      vertex 3.8 20 5
    endloop
  endfacet
  facet normal 0 1 -0
    outer loop
      vertex 5 20 2
      vertex 3.8 20 5
      vertex 5 20 5
    endloop
  endfacet
  facet normal 0 1 0
    outer loop
      vertex 3.8 20 5
      vertex 5 20 2
      vertex 3.8 20 2
    endloop
  endfacet
  facet normal -1 0 0
    outer loop
      vertex 101.3 20.8 2
      vertex 101.3 31.3 36.6
      vertex 101.3 31.3 2
    endloop
  endfacet
  facet normal -1 -0 0
    outer loop
      vertex 101.3 31.3 36.6
      vertex 101.3 20.8 2
      vertex 101.3 20.8 36.6
    endloop
  endfacet
  facet normal -0 0 1
    outer loop
      vertex 0.799999 31.3 2
      vertex 3.8 20.8 2
      vertex 3.8 31.3 2
    endloop
  endfacet
  facet normal 0 0 1
    outer loop
      vertex 3.8 20.8 2
      vertex 0.799999 31.3 2
      vertex 0.799999 20.8 2
    endloop
  endfacet
  facet normal 0 0 1
    outer loop
      vertex 3.8 31.3 2
      vertex 98.3 31.3 2
      vertex 98.3 32.1 2
    endloop
  endfacet
  facet normal 0 0 1
    outer loop
      vertex 98.3 31.3 2
      vertex 97.1 20 2
      vertex 98.3 20.8 2
    endloop
  endfacet
  facet normal 0 0 1
    outer loop
      vertex 98.3 20.8 2
      vertex 97.1 20 2
      vertex 98.3 20 2
    endloop
  endfacet
  facet normal 0 0 1
    outer loop
      vertex 98.3 31.3 2
      vertex 5 20 2
      vertex 97.1 20 2
    endloop
  endfacet
  facet normal 0 0 1
    outer loop
      vertex 3.8 31.3 2
      vertex 98.3 32.1 2
      vertex 3.8 32.1 2
    endloop
  endfacet
  facet normal 0 0 1
    outer loop
      vertex 98.3 31.3 2
      vertex 3.8 31.3 2
      vertex 5 20 2
    endloop
  endfacet
  facet normal -0 0 1
    outer loop
      vertex 3.8 20.8 2
      vertex 5 20 2
      vertex 3.8 31.3 2
    endloop
  endfacet
  facet normal 0 0 1
    outer loop
      vertex 5 20 2
      vertex 3.8 20.8 2
      vertex 3.8 20 2
    endloop
  endfacet
  facet normal -0 0 1
    outer loop
      vertex 98.3 31.3 2
      vertex 101.3 20.8 2
      vertex 101.3 31.3 2
    endloop
  endfacet
  facet normal 0 0 1
    outer loop
      vertex 101.3 20.8 2
      vertex 98.3 31.3 2
      vertex 98.3 20.8 2
    endloop
  endfacet
  facet normal 1 -0 0
    outer loop
      vertex 0.799999 20.8 36.6
      vertex 0.799999 31.3 2
      vertex 0.799999 31.3 36.6
    endloop
  endfacet
  facet normal 1 0 0
    outer loop
      vertex 0.799999 31.3 2
      vertex 0.799999 20.8 36.6
      vertex 0.799999 20.8 2
    endloop
  endfacet
  facet normal 0 -1 0
    outer loop
      vertex 98.3 31.3 2
      vertex 101.3 31.3 36.6
      vertex 98.3 31.3 36.6
    endloop
  endfacet
  facet normal 0 -1 -0
    outer loop
      vertex 101.3 31.3 36.6
      vertex 98.3 31.3 2
      vertex 101.3 31.3 2
    endloop
  endfacet
  facet normal 0 -1 0
    outer loop
      vertex 0.799999 31.3 2
      vertex 3.8 31.3 36.6
      vertex 0.799999 31.3 36.6
    endloop
  endfacet
  facet normal 0 -1 -0
    outer loop
      vertex 3.8 31.3 36.6
      vertex 0.799999 31.3 2
      vertex 3.8 31.3 2
    endloop
  endfacet
  facet normal 0 1 -0
    outer loop
      vertex 101.3 20.8 2
      vertex 98.3 20.8 36.6
      vertex 101.3 20.8 36.6
    endloop
  endfacet
  facet normal 0 1 0
    outer loop
      vertex 98.3 20.8 36.6
      vertex 101.3 20.8 2
      vertex 98.3 20.8 2
    endloop
  endfacet
  facet normal 0 1 -0
    outer loop
      vertex 3.8 20.8 2
      vertex 0.799999 20.8 36.6
      vertex 3.8 20.8 36.6
    endloop
  endfacet
  facet normal 0 1 0
    outer loop
      vertex 0.799999 20.8 36.6
      vertex 3.8 20.8 2
      vertex 0.799999 20.8 2
    endloop
  endfacet
  facet normal -1 0 0
    outer loop
      vertex 98.3 31.3 2
      vertex 98.3 32.1 36.6
      vertex 98.3 32.1 2
    endloop
  endfacet
  facet normal -1 -0 0
    outer loop
      vertex 98.3 32.1 36.6
      vertex 98.3 31.3 2
      vertex 98.3 31.3 36.6
    endloop
  endfacet
  facet normal -1 0 0
    outer loop
      vertex 98.3 20 5
      vertex 98.3 20.8 2
      vertex 98.3 20 2
    endloop
  endfacet
  facet normal -1 0 0
    outer loop
      vertex 98.3 20.8 2
      vertex 98.3 20 5
      vertex 98.3 20.8 36.6
    endloop
  endfacet
  facet normal -1 -0 0
    outer loop
      vertex 98.3 20.8 36.6
      vertex 98.3 20 5
      vertex 98.3 20 36.6
    endloop
  endfacet
  facet normal 1 0 0
    outer loop
      vertex 3.8 20 5
      vertex 3.8 20.8 36.6
      vertex 3.8 20 36.6
    endloop
  endfacet
  facet normal 1 0 0
    outer loop
      vertex 3.8 20.8 36.6
      vertex 3.8 20 5
      vertex 3.8 20.8 2
    endloop
  endfacet
  facet normal 1 0 0
    outer loop
      vertex 3.8 20.8 2
      vertex 3.8 20 5
      vertex 3.8 20 2
    endloop
  endfacet
  facet normal 1 -0 0
    outer loop
      vertex 3.8 31.3 36.6
      vertex 3.8 32.1 2
      vertex 3.8 32.1 36.6
    endloop
  endfacet
  facet normal 1 0 0
    outer loop
      vertex 3.8 32.1 2
      vertex 3.8 31.3 36.6
      vertex 3.8 31.3 2
    endloop
  endfacet
  facet normal 1 -0 0
    outer loop
      vertex 5 1.2 5
      vertex 5 20 2
      vertex 5 20 5
    endloop
  endfacet
  facet normal 1 0 0
    outer loop
      vertex 5 1.2 0
      vertex 5 20 2
      vertex 5 1.2 5
    endloop
  endfacet
  facet normal 1 0 0
    outer loop
      vertex 5 20 2
      vertex 5 1.2 0
      vertex 5 20 0
    endloop
  endfacet
  facet normal -0 0 1
    outer loop
      vertex 3.8 20 5
      vertex 5 1.2 5
      vertex 5 20 5
    endloop
  endfacet
  facet normal 0 0 1
    outer loop
      vertex 0 1.2 5
      vertex 3.8 20 5
      vertex 0 20 5
    endloop
  endfacet
  facet normal 0 0 1
    outer loop
      vertex 3.8 20 5
      vertex 0 1.2 5
      vertex 5 1.2 5
    endloop
  endfacet
  facet normal 0 -1 0
    outer loop
      vertex 0 0 0
      vertex 15 0 15
      vertex 0 0 15
    endloop
  endfacet
  facet normal 0 -1 -0
    outer loop
      vertex 15 0 15
      vertex 0 0 0
      vertex 15 0 0
    endloop
  endfacet
  facet normal 1 -0 0
    outer loop
      vertex 15 0 15
      vertex 15 1.2 0
      vertex 15 1.2 15
    endloop
  endfacet
  facet normal 1 0 0
    outer loop
      vertex 15 1.2 0
      vertex 15 0 15
      vertex 15 0 0
    endloop
  endfacet
  facet normal -0 0 1
    outer loop
      vertex 0 1.2 15
      vertex 15 0 15
      vertex 15 1.2 15
    endloop
  endfacet
  facet normal 0 0 1
    outer loop
      vertex 15 0 15
      vertex 0 1.2 15
      vertex 0 0 15
    endloop
  endfacet
  facet normal 0 1 0
    outer loop
      vertex 15 1.2 15
      vertex 5 1.2 5
      vertex 0 1.2 15
    endloop
  endfacet
  facet normal 0 1 -0
    outer loop
      vertex 15 1.2 0
      vertex 5 1.2 5
      vertex 15 1.2 15
    endloop
  endfacet
  facet normal 0 1 0
    outer loop
      vertex 5 1.2 5
      vertex 15 1.2 0
      vertex 5 1.2 0
    endloop
  endfacet
  facet normal 0 1 0
    outer loop
      vertex 0 1.2 15
      vertex 5 1.2 5
      vertex 0 1.2 5
    endloop
  endfacet
  facet normal -0 0 1
    outer loop
      vertex 98.3 20 5
      vertex 102.1 1.2 5
      vertex 102.1 20 5
    endloop
  endfacet
  facet normal 0 0 1
    outer loop
      vertex 97.1 1.2 5
      vertex 98.3 20 5
      vertex 97.1 20 5
    endloop
  endfacet
  facet normal 0 0 1
    outer loop
      vertex 98.3 20 5
      vertex 97.1 1.2 5
      vertex 102.1 1.2 5
    endloop
  endfacet
  facet normal -1 0 0
    outer loop
      vertex 97.1 1.2 0
      vertex 97.1 20 2
      vertex 97.1 20 0
    endloop
  endfacet
  facet normal -1 0 0
    outer loop
      vertex 97.1 1.2 5
      vertex 97.1 20 2
      vertex 97.1 1.2 0
    endloop
  endfacet
  facet normal -1 0 0
    outer loop
      vertex 97.1 20 2
      vertex 97.1 1.2 5
      vertex 97.1 20 5
    endloop
  endfacet
  facet normal 0 -1 0
    outer loop
      vertex 87.1 0 0
      vertex 102.1 0 15
      vertex 87.1 0 15
    endloop
  endfacet
  facet normal 0 -1 -0
    outer loop
      vertex 102.1 0 15
      vertex 87.1 0 0
      vertex 102.1 0 0
    endloop
  endfacet
  facet normal -0 0 1
    outer loop
      vertex 87.1 1.2 15
      vertex 102.1 0 15
      vertex 102.1 1.2 15
    endloop
  endfacet
  facet normal 0 0 1
    outer loop
      vertex 102.1 0 15
      vertex 87.1 1.2 15
      vertex 87.1 0 15
    endloop
  endfacet
  facet normal -1 0 0
    outer loop
      vertex 87.1 0 0
      vertex 87.1 1.2 15
      vertex 87.1 1.2 0
    endloop
  endfacet
  facet normal -1 -0 0
    outer loop
      vertex 87.1 1.2 15
      vertex 87.1 0 0
      vertex 87.1 0 15
    endloop
  endfacet
  facet normal 0 1 0
    outer loop
      vertex 97.1 1.2 5
      vertex 102.1 1.2 15
      vertex 102.1 1.2 5
    endloop
  endfacet
  facet normal 0 1 0
    outer loop
      vertex 102.1 1.2 15
      vertex 97.1 1.2 5
      vertex 87.1 1.2 15
    endloop
  endfacet
  facet normal 0 1 0
    outer loop
      vertex 87.1 1.2 0
      vertex 97.1 1.2 5
      vertex 97.1 1.2 0
    endloop
  endfacet
  facet normal 0 1 0
    outer loop
      vertex 97.1 1.2 5
      vertex 87.1 1.2 0
      vertex 87.1 1.2 15
    endloop
  endfacet
endsolid OpenSCAD_Model
