solid OpenSCAD_Model
  facet normal 1 0 0
    outer loop
      vertex 200 0.9 30
      vertex 200 0 30
      vertex 200 0.9 0.599999
    endloop
  endfacet
  facet normal 1 -0 0
    outer loop
      vertex 200 0.9 0.599999
      vertex 200 30 0
      vertex 200 30 0.599999
    endloop
  endfacet
  facet normal 1 0 0
    outer loop
      vertex 200 0.9 0.599999
      vertex 200 0 0
      vertex 200 30 0
    endloop
  endfacet
  facet normal 1 0 0
    outer loop
      vertex 200 0 0
      vertex 200 0.9 0.599999
      vertex 200 0 30
    endloop
  endfacet
  facet normal -0 0 1
    outer loop
      vertex 0 30 0.599999
      vertex 200 0.9 0.599999
      vertex 200 30 0.599999
    endloop
  endfacet
  facet normal 0 0 1
    outer loop
      vertex 200 0.9 0.599999
      vertex 0 30 0.599999
      vertex 0 0.9 0.599999
    endloop
  endfacet
  facet normal 0 0 -1
    outer loop
      vertex 0 0 0
      vertex 200 30 0
      vertex 200 0 0
    endloop
  endfacet
  facet normal -0 0 -1
    outer loop
      vertex 200 30 0
      vertex 0 0 0
      vertex 0 30 0
    endloop
  endfacet
  facet normal -1 0 0
    outer loop
      vertex 0 30 0
      vertex 0 0.9 0.599999
      vertex 0 30 0.599999
    endloop
  endfacet
  facet normal -1 0 0
    outer loop
      vertex 0 0 0
      vertex 0 0.9 0.599999
      vertex 0 30 0
    endloop
  endfacet
  facet normal -1 0 0
    outer loop
      vertex 0 0 30
      vertex 0 0.9 0.599999
      vertex 0 0 0
    endloop
  endfacet
  facet normal -1 0 0
    outer loop
      vertex 0 0.9 0.599999
      vertex 0 0 30
      vertex 0 0.9 30
    endloop
  endfacet
  facet normal 0 1 -0
    outer loop
      vertex 200 30 0
      vertex 0 30 0.599999
      vertex 200 30 0.599999
    endloop
  endfacet
  facet normal 0 1 0
    outer loop
      vertex 0 30 0.599999
      vertex 200 30 0
      vertex 0 30 0
    endloop
  endfacet
  facet normal 0 -1 0
    outer loop
      vertex 0 0 0
      vertex 200 0 30
      vertex 0 0 30
    endloop
  endfacet
  facet normal 0 -1 -0
    outer loop
      vertex 200 0 30
      vertex 0 0 0
      vertex 200 0 0
    endloop
  endfacet
  facet normal -0 0 1
    outer loop
      vertex 0 0.9 30
      vertex 200 0 30
      vertex 200 0.9 30
    endloop
  endfacet
  facet normal 0 0 1
    outer loop
      vertex 200 0 30
      vertex 0 0.9 30
      vertex 0 0 30
    endloop
  endfacet
  facet normal 0 1 -0
    outer loop
      vertex 200 0.9 0.599999
      vertex 0 0.9 30
      vertex 200 0.9 30
    endloop
  endfacet
  facet normal 0 1 0
    outer loop
      vertex 0 0.9 30
      vertex 200 0.9 0.599999
      vertex 0 0.9 0.599999
    endloop
  endfacet
endsolid OpenSCAD_Model
